<svg width="37" height="37" viewBox="0 0 37 37" fill="none" xmlns="http://www.w3.org/2000/svg">
<path d="M5.2974 22.7362L9.8684 22.7362C11.1286 22.7362 12.1539 21.7109 12.1539 20.4507L12.1539 18.373C12.1539 17.4183 12.9308 16.6417 13.885 16.6415L22.8945 16.6454C23.8515 16.6454 24.626 17.4197 24.626 18.3768C24.626 18.7115 24.626 19.6724 24.626 20.4545C24.6259 21.7092 25.6393 22.74 26.9127 22.74L31.4753 22.7328C32.7354 22.7328 33.7607 21.7075 33.7607 20.4506C33.7648 19.5142 33.7661 19.2122 33.7679 18.7923C33.768 14.2478 30.0708 10.5507 25.5265 10.5507L11.2536 10.5469C6.69842 10.5469 3.01194 14.233 3.01198 18.7885L3.01194 20.4507C3.01194 21.711 4.03718 22.7362 5.2974 22.7362ZM32.2371 20.4473C32.2371 20.8674 31.8954 21.2091 31.4741 21.2092L26.9115 21.2164C26.4904 21.2164 26.1497 20.8756 26.1497 20.4545L26.1497 19.6927L32.2404 19.6927L32.2371 20.4473ZM11.2533 12.0706L25.5264 12.0744C29.0423 12.0744 31.8994 14.7382 32.2153 18.169L26.1423 18.169C26.0357 16.4667 24.6242 15.1217 22.8948 15.1217L13.8857 15.1179C13.8856 15.1179 13.8854 15.1179 13.8854 15.1179C12.1578 15.1179 10.7442 16.4606 10.6376 18.1652H4.56442C4.87714 14.743 7.71317 12.0706 11.2533 12.0706ZM4.53555 20.4508V19.6889L10.6302 19.6889L10.6303 20.4507C10.6302 20.8708 10.2885 21.2126 9.8684 21.2126H5.2974C4.87728 21.2126 4.53551 20.8708 4.53555 20.4508Z" fill="#2675EC"/>
</svg>
